<?xml version="1.0" encoding="UTF-8"?>
<svg width="260px" height="60px" viewBox="0 0 260 60" version="1.1" xmlns="http://www.w3.org/2000/svg" xmlns:xlink="http://www.w3.org/1999/xlink">
    <!-- Generator: Sketch 48.1 (47250) - http://www.bohemiancoding.com/sketch -->
    <title>Group 6</title>
    <desc>Created with Sketch.</desc>
    <defs></defs>
    <g id="THRUPUT" stroke="none" stroke-width="1" fill="none" fill-rule="evenodd" transform="translate(-23.000000, -12.000000)">
        <g id="Group-6" transform="translate(23.000000, 12.000000)">
            <g id="Group-13">
                <path d="M44.2105263,0 C53.7877983,0 60,6.2122017 60,15.7894737 L60,44.2105263 C60,53.7877983 53.7877983,60 44.2105263,60 L15.7894737,60 C6.2122017,60 0,53.7877983 0,44.2105263 L0,15.7894737 C0,6.2122017 6.2122017,0 15.7894737,0 L44.2105263,0 Z" id="Rectangle-7" fill="#D0021B"></path>
                <g id="Shape-+-Shape-2" transform="translate(13.000000, 13.000000)" fill="#FFFFFF">
                    <g id="Shape-+-Shape">
                        <path d="M18.2526369,18.3566276 L18.2526369,15.2136169 L20.2398787,15.2136169 L20.2398787,12.0969932 L18.2526369,12.0969932 L18.2526369,8.70138441 L15.2016332,8.70138441 L15.2016332,12.0969932 L13.1211595,12.0969932 L13.1211595,15.2136169 L15.2016332,15.2136169 L15.2016332,18.2339652 C15.2016332,21.7498469 16.6457715,23.3620521 18.7377487,25.2192667 L20.787455,23.0577203 C20.2398785,22.6818371 19.6744599,22.0629067 19.4138196,21.749847 C18.6650023,20.8504044 18.2526369,19.64533 18.2526369,18.3566276 Z" id="Shape"></path>
                        <path d="M16.9544319,0 C7.59073138,0 4.98655362e-05,7.59336483 0,16.9602757 L0,33.9206511 L16.9542324,33.9206511 L16.9542324,33.9206012 L16.9544319,33.9206012 C26.317933,33.9206012 33.9086145,26.3272364 33.9086145,16.9603255 C33.9086145,7.59341471 26.3179828,0 16.9544319,0 L16.9544319,0 Z M17.101736,28.6113318 C10.7507435,28.6113318 5.60229283,23.4610035 5.60229283,17.1078066 C5.60229283,10.7545597 10.7507935,5.60428148 17.101736,5.60428148 C23.4526785,5.60428148 28.6011792,10.7545597 28.6011792,17.1078066 C28.6011792,23.4610035 23.4527285,28.6113318 17.101736,28.6113318 L17.101736,28.6113318 Z" id="Shape"></path>
                    </g>
                </g>
            </g>
            <path d="M87.84,19 L87.84,22.96 L82.17,22.96 L82.17,40 L78.03,40 L78.03,22.96 L72.39,22.96 L72.39,19 L87.84,19 Z M94.38,40.42 C92.1599889,40.42 90.2850076,39.6550077 88.755,38.125 C87.2249923,36.5949924 86.46,34.7200111 86.46,32.5 C86.46,30.2799889 87.2249923,28.4050077 88.755,26.875 C90.2850076,25.3449924 92.1599889,24.58 94.38,24.58 C96.6000111,24.58 98.4799923,25.3449924 100.02,26.875 C101.560008,28.4050077 102.33,30.2799889 102.33,32.5 C102.33,34.7200111 101.560008,36.5949924 100.02,38.125 C98.4799923,39.6550077 96.6000111,40.42 94.38,40.42 Z M94.38,36.64 C95.5400058,36.64 96.5099961,36.2500039 97.29,35.47 C98.0700039,34.6899961 98.46,33.700006 98.46,32.5 C98.46,31.299994 98.0700039,30.3100039 97.29,29.53 C96.5099961,28.7499961 95.5400058,28.36 94.38,28.36 C93.2199942,28.36 92.2550038,28.7499961 91.485,29.53 C90.7149961,30.3100039 90.33,31.299994 90.33,32.5 C90.33,33.700006 90.7149961,34.6899961 91.485,35.47 C92.2550038,36.2500039 93.2199942,36.64 94.38,36.64 Z M114.96,25 L118.83,25 L118.83,40 L114.96,40 L114.96,38.32 C114.019995,39.720007 112.53001,40.42 110.49,40.42 C108.849992,40.42 107.495005,39.8700055 106.425,38.77 C105.354995,37.6699945 104.82,36.1500097 104.82,34.21 L104.82,25 L108.69,25 L108.69,33.73 C108.69,34.730005 108.959997,35.4949974 109.5,36.025 C110.040003,36.5550027 110.759995,36.82 111.66,36.82 C112.660005,36.82 113.459997,36.5100031 114.06,35.89 C114.660003,35.2699969 114.96,34.3400062 114.96,33.1 L114.96,25 Z M129.51,40.42 C127.249989,40.42 125.365008,39.6600076 123.855,38.14 C122.344992,36.6199924 121.59,34.7400112 121.59,32.5 C121.59,30.2599888 122.344992,28.3800076 123.855,26.86 C125.365008,25.3399924 127.249989,24.58 129.51,24.58 C130.970007,24.58 132.299994,24.9299965 133.5,25.63 C134.700006,26.3300035 135.609997,27.2699941 136.23,28.45 L132.9,30.4 C132.599998,29.7799969 132.145003,29.2900018 131.535,28.93 C130.924997,28.5699982 130.240004,28.39 129.48,28.39 C128.319994,28.39 127.360004,28.7749962 126.6,29.545 C125.839996,30.3150039 125.46,31.299994 125.46,32.5 C125.46,33.6800059 125.839996,34.6549962 126.6,35.425 C127.360004,36.1950039 128.319994,36.58 129.48,36.58 C130.260004,36.58 130.954997,36.4050018 131.565,36.055 C132.175003,35.7049983 132.629998,35.2200031 132.93,34.6 L136.29,36.52 C135.629997,37.7000059 134.700006,38.6449965 133.5,39.355 C132.299994,40.0650036 130.970007,40.42 129.51,40.42 Z M146.67,24.58 C148.310008,24.58 149.664995,25.1299945 150.735,26.23 C151.805005,27.3300055 152.34,28.8499903 152.34,30.79 L152.34,40 L148.47,40 L148.47,31.27 C148.47,30.269995 148.200003,29.5050027 147.66,28.975 C147.119997,28.4449974 146.400004,28.18 145.5,28.18 C144.499995,28.18 143.700003,28.4899969 143.1,29.11 C142.499997,29.7300031 142.2,30.6599938 142.2,31.9 L142.2,40 L138.33,40 L138.33,19 L142.2,19 L142.2,26.68 C143.140005,25.279993 144.62999,24.58 146.67,24.58 Z M164.37,24.58 C166.39001,24.58 168.114993,25.3449924 169.545,26.875 C170.975007,28.4050077 171.69,30.2799889 171.69,32.5 C171.69,34.7200111 170.975007,36.5949924 169.545,38.125 C168.114993,39.6550077 166.39001,40.42 164.37,40.42 C162.26999,40.42 160.650006,39.6900073 159.51,38.23 L159.51,46 L155.64,46 L155.64,25 L159.51,25 L159.51,26.77 C160.650006,25.3099927 162.26999,24.58 164.37,24.58 Z M163.65,36.73 C164.850006,36.73 165.844996,36.335004 166.635,35.545 C167.425004,34.7549961 167.82,33.7400062 167.82,32.5 C167.82,31.2599938 167.425004,30.245004 166.635,29.455 C165.844996,28.6649961 164.850006,28.27 163.65,28.27 C162.449994,28.27 161.460004,28.6649961 160.68,29.455 C159.899996,30.245004 159.51,31.2599938 159.51,32.5 C159.51,33.7400062 159.899996,34.7549961 160.68,35.545 C161.460004,36.335004 162.449994,36.73 163.65,36.73 Z M181.56,40.42 C179.339989,40.42 177.465008,39.6550077 175.935,38.125 C174.404992,36.5949924 173.64,34.7200111 173.64,32.5 C173.64,30.2799889 174.404992,28.4050077 175.935,26.875 C177.465008,25.3449924 179.339989,24.58 181.56,24.58 C183.780011,24.58 185.659992,25.3449924 187.2,26.875 C188.740008,28.4050077 189.51,30.2799889 189.51,32.5 C189.51,34.7200111 188.740008,36.5949924 187.2,38.125 C185.659992,39.6550077 183.780011,40.42 181.56,40.42 Z M181.56,36.64 C182.720006,36.64 183.689996,36.2500039 184.47,35.47 C185.250004,34.6899961 185.64,33.700006 185.64,32.5 C185.64,31.299994 185.250004,30.3100039 184.47,29.53 C183.689996,28.7499961 182.720006,28.36 181.56,28.36 C180.399994,28.36 179.435004,28.7499961 178.665,29.53 C177.894996,30.3100039 177.51,31.299994 177.51,32.5 C177.51,33.700006 177.894996,34.6899961 178.665,35.47 C179.435004,36.2500039 180.399994,36.64 181.56,36.64 Z M194.16,23.2 C193.519997,23.2 192.965002,22.9650024 192.495,22.495 C192.024998,22.0249977 191.79,21.4700032 191.79,20.83 C191.79,20.1899968 192.024998,19.6300024 192.495,19.15 C192.965002,18.6699976 193.519997,18.43 194.16,18.43 C194.820003,18.43 195.384998,18.6699976 195.855,19.15 C196.325002,19.6300024 196.56,20.1899968 196.56,20.83 C196.56,21.4700032 196.325002,22.0249977 195.855,22.495 C195.384998,22.9650024 194.820003,23.2 194.16,23.2 Z M192.24,40 L192.24,25 L196.11,25 L196.11,40 L192.24,40 Z M207.99,24.58 C209.630008,24.58 210.984995,25.1299945 212.055,26.23 C213.125005,27.3300055 213.66,28.8499903 213.66,30.79 L213.66,40 L209.79,40 L209.79,31.27 C209.79,30.269995 209.520003,29.5050027 208.98,28.975 C208.439997,28.4449974 207.720004,28.18 206.82,28.18 C205.819995,28.18 205.020003,28.4899969 204.42,29.11 C203.819997,29.7300031 203.52,30.6599938 203.52,31.9 L203.52,40 L199.65,40 L199.65,25 L203.52,25 L203.52,26.68 C204.460005,25.279993 205.94999,24.58 207.99,24.58 Z M225.54,28.72 L222.15,28.72 L222.15,34.96 C222.15,35.4800026 222.279999,35.8599988 222.54,36.1 C222.800001,36.3400012 223.179998,36.4749999 223.68,36.505 C224.180003,36.5350002 224.799996,36.5300002 225.54,36.49 L225.54,40 C222.879987,40.3000015 221.005005,40.050004 219.915,39.25 C218.824995,38.449996 218.28,37.0200103 218.28,34.96 L218.28,28.72 L215.67,28.72 L215.67,25 L218.28,25 L218.28,21.97 L222.15,20.8 L222.15,25 L225.54,25 L225.54,28.72 Z M230.76,40.39 C230.059997,40.39 229.460002,40.1400025 228.96,39.64 C228.459997,39.1399975 228.21,38.5400035 228.21,37.84 C228.21,37.1399965 228.459997,36.5400025 228.96,36.04 C229.460002,35.5399975 230.059997,35.29 230.76,35.29 C231.460003,35.29 232.059998,35.5399975 232.56,36.04 C233.060002,36.5400025 233.31,37.1399965 233.31,37.84 C233.31,38.5400035 233.060002,39.1399975 232.56,39.64 C232.059998,40.1400025 231.460003,40.39 230.76,40.39 Z M238.47,23.2 C237.829997,23.2 237.275002,22.9650024 236.805,22.495 C236.334998,22.0249977 236.1,21.4700032 236.1,20.83 C236.1,20.1899968 236.334998,19.6300024 236.805,19.15 C237.275002,18.6699976 237.829997,18.43 238.47,18.43 C239.130003,18.43 239.694998,18.6699976 240.165,19.15 C240.635002,19.6300024 240.87,20.1899968 240.87,20.83 C240.87,21.4700032 240.635002,22.0249977 240.165,22.495 C239.694998,22.9650024 239.130003,23.2 238.47,23.2 Z M236.55,40 L236.55,25 L240.42,25 L240.42,40 L236.55,40 Z M251.1,40.42 C248.879989,40.42 247.005008,39.6550077 245.475,38.125 C243.944992,36.5949924 243.18,34.7200111 243.18,32.5 C243.18,30.2799889 243.944992,28.4050077 245.475,26.875 C247.005008,25.3449924 248.879989,24.58 251.1,24.58 C253.320011,24.58 255.199992,25.3449924 256.74,26.875 C258.280008,28.4050077 259.05,30.2799889 259.05,32.5 C259.05,34.7200111 258.280008,36.5949924 256.74,38.125 C255.199992,39.6550077 253.320011,40.42 251.1,40.42 Z M251.1,36.64 C252.260006,36.64 253.229996,36.2500039 254.01,35.47 C254.790004,34.6899961 255.18,33.700006 255.18,32.5 C255.18,31.299994 254.790004,30.3100039 254.01,29.53 C253.229996,28.7499961 252.260006,28.36 251.1,28.36 C249.939994,28.36 248.975004,28.7499961 248.205,29.53 C247.434996,30.3100039 247.05,31.299994 247.05,32.5 C247.05,33.700006 247.434996,34.6899961 248.205,35.47 C248.975004,36.2500039 249.939994,36.64 251.1,36.64 Z" id="Touchpoint.io" fill="#4A4A4A"></path>
        </g>
    </g>
</svg>