<?xml version="1.0" encoding="UTF-8"?>
<svg width="155px" height="16px" viewBox="0 0 155 16" version="1.1" xmlns="http://www.w3.org/2000/svg" xmlns:xlink="http://www.w3.org/1999/xlink">
    <!-- Generator: Sketch 42 (36781) - http://www.bohemiancoding.com/sketch -->
    <title>Hintbox Logo Light</title>
    <desc>Created with Sketch.</desc>
    <defs></defs>
    <g id="Page-1" stroke="none" stroke-width="1" fill="none" fill-rule="evenodd">
        <g id="HintboxSaver" transform="translate(-132.000000, -26.000000)" fill="#FFFFFF">
            <g id="//-Main-Nav">
                <g id="Hintbox-Logo-Light" transform="translate(132.000000, 26.000000)">
                    <path d="M137.627164,9.21754078 L141.02005,9.21754078 L141.050778,9.18584065 L139.32244,4.61304893 L137.59527,9.18584065 L137.627164,9.21754078 Z M141.214918,9.69343162 L137.431324,9.69343162 L137.041976,9.30680678 L139.053087,3.98099122 L139.59335,3.98099122 L141.605238,9.30680678 L141.214918,9.69343162 Z M143.748011,14.8731932 L145.452428,14.8731932 L145.523413,14.8041531 L145.523413,12.8541092 L140.703632,0.79153074 L140.59803,0.685928482 L138.049184,0.685928482 L137.942804,0.79153074 L133.123024,12.8541092 L133.123024,14.8041531 L133.194009,14.8731932 L134.898036,14.8731932 L135.003639,14.7695358 L136.074442,12.0059849 L136.684912,11.7315747 L142.067905,11.756468 L142.572773,12.0059849 L143.643576,14.7695358 L143.748011,14.8731932 Z M145.648074,15.3492785 L143.553532,15.3492785 L143.217472,14.988325 L142.194511,12.3513802 L141.905709,12.2074655 L136.741506,12.2074655 L136.451537,12.3513802 L135.373927,15.0707842 L135.093683,15.3492785 L132.999335,15.3492785 L132.673777,15.0141907 L132.664247,12.7199184 L137.573294,0.488337516 L137.853538,0.210037641 L140.792898,0.210037641 L141.127403,0.569046424 L145.999304,12.808212 L145.999304,15.001744 L145.648074,15.3492785 L145.648074,15.3492785 Z" id="Fill-9"></path>
                    <path d="M151.984987,14.8731932 L154.323601,14.8731932 L154.393419,14.8041531 L154.393419,0.756135508 L154.323601,0.685928482 L151.984987,0.685928482 L151.913808,0.756135508 L151.913808,14.8041531 L151.984987,14.8731932 Z M154.518469,15.3492785 L151.789341,15.3492785 L151.437917,15.001744 L151.437917,0.558350063 L151.789341,0.210037641 L154.518469,0.210037641 L154.869504,0.558350063 L154.869504,15.001744 L154.518469,15.3492785 L154.518469,15.3492785 Z" id="Fill-10"></path>
                    <polyline id="Fill-11" points="22.446995 15.3510289 19.8314429 15.3510289 19.614404 15.1341844 19.614404 0.432716437 19.8314429 0.216455458 22.446995 0.216455458 22.6638394 0.432716437 22.6638394 15.1341844 22.446995 15.3510289"></polyline>
                    <polyline id="Fill-12" points="12.1998808 15.3510289 9.58607905 15.3510289 9.36826223 15.1341844 9.36826223 9.08121079 9.15044542 8.86436637 3.26822459 8.86436637 3.05040778 9.08121079 3.05040778 15.1341844 2.83259097 15.3510289 0.217816813 15.3510289 0 15.1341844 0 0.432716437 0.217816813 0.216844417 2.83259097 0.216844417 3.05040778 0.432716437 3.05040778 6.05433501 3.26822459 6.27020703 9.15044542 6.27020703 9.36826223 6.05433501 9.36826223 0.432716437 9.58607905 0.216844417 12.1998808 0.216844417 12.4176976 0.432716437 12.4176976 15.1341844 12.1998808 15.3510289"></polyline>
                    <polyline id="Fill-13" points="61.078946 2.81100376 56.7216374 2.81100376 56.5038206 3.02687578 56.5038206 15.1341844 56.2860038 15.3510289 53.672202 15.3510289 53.4541907 15.1341844 53.4541907 3.02687578 53.2365684 2.81100376 48.8790652 2.81100376 48.6614429 2.59474279 48.6614429 0.432716437 48.8790652 0.216844417 61.078946 0.216844417 61.2969573 0.432716437 61.2969573 2.59474279 61.078946 2.81100376"></polyline>
                    <path d="M70.9691907,6.07494981 L74.2479172,6.07494981 C75.5098934,6.07494981 75.6998996,5.17392723 75.6998996,4.63735885 C75.6998996,3.6157591 75.2786575,3.198601 74.2479172,3.198601 L70.9682183,3.198601 L70.8982058,3.26958595 L70.8982058,6.00454831 L70.9691907,6.07494981 Z M74.2479172,6.55084065 L70.7723777,6.55084065 L70.4221205,6.20194479 L70.4221205,3.07160602 L70.7735445,2.72368256 L74.2479172,2.72368256 C75.5433438,2.72368256 76.1738457,3.34873902 76.1738457,4.63735885 C76.1738457,5.5630803 75.6691719,6.55084065 74.2479172,6.55084065 Z M70.9682183,12.3591593 L74.2479172,12.3591593 C75.5606524,12.3591593 76.1221142,11.8657654 76.1221142,10.7125031 C76.1221142,9.55710163 75.5606524,9.06487453 74.2479172,9.06487453 L70.9691907,9.06487453 L70.8982058,9.13488708 L70.8982058,12.2889523 L70.9682183,12.3591593 Z M74.2479172,12.8350502 L70.7735445,12.8350502 L70.4221205,12.4867378 L70.4221205,8.93729611 L70.7723777,8.58801129 L74.2479172,8.58801129 C75.8284504,8.58801129 76.598005,9.28269134 76.598005,10.7125031 C76.598005,12.1403701 75.8284504,12.8350502 74.2479172,12.8350502 Z M68.0138833,14.8731932 L75.0923463,14.8731932 C76.0272083,14.8731932 79.0764492,14.6036449 79.0764492,11.1308281 C79.0764492,9.30875157 78.2849184,8.1877729 76.7238331,7.80173149 L76.5443287,7.75622334 L76.5443287,7.18095358 L76.716054,7.13194479 C78.4018005,6.65313676 78.655207,5.10099749 78.655207,4.21767252 C78.655207,1.61359473 76.5970326,0.685539523 74.6703262,0.685539523 L68.0129109,0.685539523 L67.9427039,0.756135508 L67.9427039,14.8031807 L68.0138833,14.8731932 Z M75.0923463,15.3492785 L67.8170703,15.3492785 L67.466813,15.001744 L67.466813,0.557572146 L67.8180427,0.209648683 L74.6703262,0.209648683 C76.8263237,0.209648683 79.1303199,1.26275408 79.1303199,4.21767252 C79.1303199,5.78887077 78.4440025,6.94660602 77.2323965,7.45536386 C78.7520577,7.98434755 79.55234,9.24807403 79.55234,11.1308281 C79.55234,14.2417189 77.2485383,15.3492785 75.0923463,15.3492785 L75.0923463,15.3492785 Z" id="Fill-14"></path>
                    <path d="M92.0048494,2.98953576 C89.5483814,2.98953576 88.0217189,4.82464241 88.0217189,7.77917189 C88.0217189,10.7335069 89.5483814,12.5701694 92.0048494,12.5701694 C94.4622898,12.5701694 95.9877854,10.7335069 95.9877854,7.77917189 C95.9877854,4.82464241 94.4622898,2.98953576 92.0048494,2.98953576 Z M92.0048494,13.0462547 C89.2547177,13.0462547 87.5458281,11.0283375 87.5458281,7.77917189 C87.5458281,4.53058971 89.2547177,2.51364492 92.0048494,2.51364492 C94.7559536,2.51364492 96.4648432,4.53058971 96.4648432,7.77917189 C96.4648432,11.0283375 94.7559536,13.0462547 92.0048494,13.0462547 Z M92.0048494,0.475890841 C87.8546612,0.475890841 85.0650502,3.41116688 85.0650502,7.77917189 C85.0650502,12.1471769 87.8546612,15.0822585 92.0048494,15.0822585 C96.1556211,15.0822585 98.9432873,12.1471769 98.9432873,7.77917189 C98.9432873,3.41116688 96.1556211,0.475890841 92.0048494,0.475890841 Z M92.0048494,15.5583438 C87.5697491,15.5583438 84.5903262,12.4320891 84.5903262,7.77917189 C84.5903262,3.12625471 87.5697491,0 92.0048494,0 C96.4397553,0 99.4199561,3.12625471 99.4199561,7.77917189 C99.4199561,12.4320891 96.4397553,15.5583438 92.0048494,15.5583438 L92.0048494,15.5583438 Z" id="Fill-15"></path>
                    <path d="M115.137967,14.8731932 L116.460232,14.8731932 L116.531995,14.8031807 L116.531995,12.8916437 L112.310044,7.65431619 L112.310044,7.27196989 L116.321957,2.66261606 L116.321957,0.756135508 L116.250778,0.685539523 L114.925985,0.685539523 L114.600427,0.847735257 L110.762183,5.50395859 L110.324605,5.50395859 L106.486556,0.847735257 L106.160414,0.685539523 L104.835816,0.685539523 L104.765997,0.756135508 L104.765997,2.66261606 L108.777133,7.27196989 L108.777133,7.65431619 L104.554793,12.8916437 L104.554793,14.8031807 L104.626945,14.8731932 L105.94921,14.8731932 L106.271656,14.7139147 L110.320715,9.42660602 L110.767045,9.42660602 L114.815521,14.7139147 L115.137967,14.8731932 Z M116.657629,15.3492785 L114.975772,15.3241907 L114.47207,15.0458908 L110.543394,9.91805521 L106.533425,15.1141531 L106.004636,15.3492785 L104.428965,15.3492785 L104.078902,15.001744 L104.078902,12.723808 L108.300075,7.44991844 L104.28894,2.84017566 L104.28894,0.557572146 L104.641336,0.209648683 L106.32261,0.234736512 L106.822422,0.506035132 L110.543394,5.01931619 L114.343325,0.443218319 L114.871336,0.209648683 L116.445646,0.209648683 L116.797848,0.557572146 L116.797848,2.84017566 L112.785935,7.48648055 L117.007886,12.723808 L117.007886,15.001744 L116.657629,15.3492785 L116.657629,15.3492785 Z" id="Fill-16"></path>
                    <polyline id="Fill-17" points="30.1380678 0.216844417 33.1892535 0.216844417 33.6248871 0.432716437 39.5071079 10.3785822 39.7239523 10.3785822 39.7239523 0.432716437 39.9427415 0.216844417 42.5565433 0.216844417 42.7733877 0.432716437 42.7733877 15.1341844 42.5565433 15.3510289 39.5071079 15.3510289 39.0714743 15.1341844 33.1892535 5.18870765 32.9704642 5.18870765 32.9704642 15.1341844 32.7536198 15.3510289 30.1380678 15.3510289 29.9212233 15.1341844 29.9212233 0.432716437 30.1380678 0.216844417"></polyline>
                    <path d="M123.453513,14.8731932 L126.214147,14.8731932 L126.283965,14.8041531 L126.283965,12.2776725 L126.214147,12.2074655 L123.453513,12.2074655 L123.382334,12.2776725 L123.382334,14.8041531 L123.453513,14.8731932 Z M126.409015,15.3492785 L123.257867,15.3492785 L122.906443,15.001744 L122.906443,12.0789147 L123.257867,11.7315747 L126.409015,11.7315747 L126.76005,12.0789147 L126.76005,15.001744 L126.409015,15.3492785 L126.409015,15.3492785 Z" id="Fill-8"></path>
                </g>
            </g>
        </g>
    </g>
</svg>